<svg xmlns="http://www.w3.org/2000/svg" viewBox="0 0 800 800">
  <defs>
    <radialGradient id="v2-bg" cx="30%" cy="70%" r="90%">
      <stop offset="0%" stop-color="#101b38"/>
      <stop offset="55%" stop-color="#0b0618"/>
      <stop offset="100%" stop-color="#050208"/>
    </radialGradient>
    <linearGradient id="v2-arc" x1="0" y1="1" x2="1" y2="0">
      <stop offset="0%" stop-color="#a78bfa"/>
      <stop offset="100%" stop-color="#f0abfc"/>
    </linearGradient>
  </defs>
  <rect width="800" height="800" fill="url(#v2-bg)"/>
  <g fill="#ece9f7">
    <circle cx="220" cy="120" r="1.5"/><circle cx="600" cy="180" r="1.2" fill="#f0abfc"/>
    <circle cx="700" cy="420" r="1.7"/><circle cx="150" cy="520" r="1.3" fill="#67e8f9"/>
    <circle cx="370" cy="680" r="1.5"/><circle cx="520" cy="90" r="1.1"/>
  </g>
  <g fill="none" stroke="url(#v2-arc)" stroke-width="1.4">
    <path d="M 120 620 A 360 360 0 0 1 680 560" opacity="0.85"/>
    <path d="M 160 560 A 300 300 0 0 1 640 510" opacity="0.6"/>
    <path d="M 205 505 A 245 245 0 0 1 600 462" opacity="0.4"/>
  </g>
  <circle cx="404" cy="330" r="84" fill="#050208" stroke="#67e8f9" stroke-width="1.8"/>
  <circle cx="404" cy="330" r="116" fill="none" stroke="#67e8f9" stroke-width="0.7" stroke-dasharray="2 10" opacity="0.7"/>
  <g stroke="#ece9f7" stroke-width="1.2" opacity="0.8" fill="none">
    <path d="M 404 214 L 404 196 M 404 464 L 404 446"/>
    <path d="M 288 330 L 270 330 M 538 330 L 520 330"/>
  </g>
  <path d="M 404 296 L 404 364 M 380 318 L 428 342 M 428 318 L 380 342" stroke="#f0abfc" stroke-width="1.4" opacity="0.9"/>
  <text x="400" y="730" text-anchor="middle" font-family="monospace" font-size="22" letter-spacing="14" fill="#67e8f9" opacity="0.7">S V — 0 2</text>
</svg>
