<svg xmlns="http://www.w3.org/2000/svg" viewBox="0 0 800 800">
  <defs>
    <radialGradient id="v1-bg" cx="50%" cy="42%" r="75%">
      <stop offset="0%" stop-color="#1b0f38"/>
      <stop offset="55%" stop-color="#0b0618"/>
      <stop offset="100%" stop-color="#050208"/>
    </radialGradient>
    <linearGradient id="v1-ring" x1="0" y1="0" x2="1" y2="1">
      <stop offset="0%" stop-color="#67e8f9"/>
      <stop offset="100%" stop-color="#a78bfa"/>
    </linearGradient>
  </defs>
  <rect width="800" height="800" fill="url(#v1-bg)"/>
  <g fill="#ece9f7">
    <circle cx="123" cy="167" r="1.6"/><circle cx="671" cy="92" r="1.2"/>
    <circle cx="540" cy="251" r="1.8" fill="#67e8f9"/><circle cx="201" cy="603" r="1.3"/>
    <circle cx="711" cy="540" r="1.5" fill="#a78bfa"/><circle cx="88" cy="421" r="1.1"/>
    <circle cx="430" cy="111" r="1.4"/><circle cx="620" cy="700" r="1.7"/>
  </g>
  <circle cx="400" cy="400" r="210" fill="none" stroke="url(#v1-ring)" stroke-width="1.5" stroke-dasharray="6 14" opacity="0.8"/>
  <circle cx="400" cy="400" r="160" fill="none" stroke="#a78bfa" stroke-width="0.8" opacity="0.5"/>
  <circle cx="400" cy="400" r="118" fill="#050208" stroke="url(#v1-ring)" stroke-width="2.5"/>
  <circle cx="400" cy="400" r="118" fill="none" stroke="#67e8f9" stroke-width="0.6" opacity="0.6"/>
  <g stroke="#ece9f7" stroke-width="1.4" opacity="0.85">
    <line x1="400" y1="142" x2="400" y2="118"/>
    <line x1="612" y1="471" x2="635" y2="479"/>
    <line x1="222" y1="299" x2="201" y2="287"/>
    <line x1="497" y1="201" x2="509" y2="180"/>
  </g>
  <path d="M 400 358 L 437 421 L 363 421 Z" fill="none" stroke="#67e8f9" stroke-width="1.6" opacity="0.9"/>
  <circle cx="400" cy="400" r="6" fill="#ece9f7"/>
  <text x="400" y="730" text-anchor="middle" font-family="monospace" font-size="22" letter-spacing="14" fill="#a78bfa" opacity="0.7">S V — 0 1</text>
</svg>
