<svg xmlns="http://www.w3.org/2000/svg" viewBox="0 0 800 800">
  <defs>
    <radialGradient id="v3-bg" cx="50%" cy="110%" r="110%">
      <stop offset="0%" stop-color="#06222e"/>
      <stop offset="50%" stop-color="#0b0618"/>
      <stop offset="100%" stop-color="#050208"/>
    </radialGradient>
    <linearGradient id="v3-wave" x1="0" y1="0" x2="1" y2="0">
      <stop offset="0%" stop-color="#67e8f9" stop-opacity="0"/>
      <stop offset="50%" stop-color="#67e8f9"/>
      <stop offset="100%" stop-color="#67e8f9" stop-opacity="0"/>
    </linearGradient>
  </defs>
  <rect width="800" height="800" fill="url(#v3-bg)"/>
  <g fill="#ece9f7">
    <circle cx="140" cy="140" r="1.4"/><circle cx="660" cy="110" r="1.6" fill="#67e8f9"/>
    <circle cx="720" cy="300" r="1.2"/><circle cx="90" cy="330" r="1.5"/>
    <circle cx="240" cy="80" r="1.1" fill="#a78bfa"/>
  </g>
  <g fill="none" stroke="url(#v3-wave)" stroke-width="1.3">
    <path d="M 80 470 Q 200 430 320 470 T 560 470 T 800 470" opacity="0.9"/>
    <path d="M 80 520 Q 200 487 320 520 T 560 520 T 800 520" opacity="0.65"/>
    <path d="M 80 570 Q 200 543 320 570 T 560 570 T 800 570" opacity="0.45"/>
    <path d="M 80 620 Q 200 598 320 620 T 560 620 T 800 620" opacity="0.3"/>
    <path d="M 80 670 Q 200 652 320 670 T 560 670 T 800 670" opacity="0.18"/>
  </g>
  <circle cx="400" cy="280" r="92" fill="#050208" stroke="#a78bfa" stroke-width="2"/>
  <circle cx="400" cy="280" r="92" fill="none" stroke="#67e8f9" stroke-width="0.6" opacity="0.5"/>
  <path d="M 352 280 Q 376 252 400 280 T 448 280" fill="none" stroke="#f0abfc" stroke-width="1.6" opacity="0.9"/>
  <circle cx="400" cy="280" r="128" fill="none" stroke="#a78bfa" stroke-width="0.7" stroke-dasharray="3 12" opacity="0.6"/>
  <text x="400" y="745" text-anchor="middle" font-family="monospace" font-size="22" letter-spacing="14" fill="#f0abfc" opacity="0.7">S V — 0 3</text>
</svg>
